<svg width="36" height="40" viewBox="0 0 36 40" fill="none" xmlns="http://www.w3.org/2000/svg">
<path d="M2 40C1.43333 40 0.958333 39.8083 0.575 39.425C0.191667 39.0417 0 38.5667 0 38V27.05C0 26.225 0.29375 25.5188 0.88125 24.9313C1.46875 24.3438 2.175 24.05 3 24.05H4.35V14.95C4.35 14.125 4.64375 13.4188 5.23125 12.8313C5.81875 12.2438 6.525 11.95 7.35 11.95H16.5V8.75C15.8333 8.28333 15.325 7.77443 14.975 7.2233C14.625 6.67217 14.45 6.00755 14.45 5.22945C14.45 4.74315 14.5417 4.275 14.725 3.825C14.9083 3.375 15.1667 2.98333 15.5 2.65L18 0L20.5 2.65C20.8333 2.98333 21.1 3.375 21.3 3.825C21.5 4.275 21.6 4.74315 21.6 5.22945C21.6 6.00755 21.4167 6.67217 21.05 7.2233C20.6833 7.77443 20.1667 8.28333 19.5 8.75V11.95H28.65C29.475 11.95 30.1813 12.2438 30.7688 12.8313C31.3563 13.4188 31.65 14.125 31.65 14.95V24.05H33C33.825 24.05 34.5313 24.3438 35.1188 24.9313C35.7063 25.5188 36 26.225 36 27.05V38C36 38.5667 35.8083 39.0417 35.425 39.425C35.0417 39.8083 34.5667 40 34 40H2ZM7.35 24.05H28.65V14.95H7.35V24.05ZM3 37H33V27.05H3V37Z" fill="#FCBE36"/>
</svg>
