<svg width="28" height="36" viewBox="0 0 28 36" fill="none" xmlns="http://www.w3.org/2000/svg">
<path d="M14 36C10.1 36 6.79167 34.6417 4.075 31.925C1.35833 29.2083 0 25.9 0 22C0 19.4333 0.425 16.85 1.275 14.25C2.125 11.65 3.225 9.29167 4.575 7.175C5.925 5.05833 7.43333 3.33333 9.1 2C10.7667 0.666667 12.4 0 14 0C15.6333 0 17.275 0.666667 18.925 2C20.575 3.33333 22.075 5.05833 23.425 7.175C24.775 9.29167 25.875 11.65 26.725 14.25C27.575 16.85 28 19.4333 28 22C28 25.9 26.6417 29.2083 23.925 31.925C21.2083 34.6417 17.9 36 14 36ZM14 34C17.32 34 20.15 32.83 22.49 30.49C24.83 28.15 26 25.32 26 22C26 19.8 25.625 17.525 24.875 15.175C24.125 12.825 23.1554 10.6777 21.9663 8.7332C20.7771 6.78867 19.4771 5.18033 18.0663 3.9082C16.6554 2.63607 15.3 2 14 2C12.7 2 11.3417 2.625 9.925 3.875C8.50833 5.125 7.20833 6.725 6.025 8.675C4.84167 10.625 3.875 12.7833 3.125 15.15C2.375 17.5167 2 19.8 2 22C2 25.32 3.17 28.15 5.51 30.49C7.85 32.83 10.68 34 14 34ZM15.25 29.95C15.5333 29.95 15.7708 29.8542 15.9625 29.6625C16.1542 29.4708 16.25 29.2333 16.25 28.95C16.25 28.6667 16.1542 28.4292 15.9625 28.2375C15.7708 28.0458 15.5333 27.95 15.25 27.95C13.3056 27.95 11.6528 27.2695 10.2917 25.9083C8.93055 24.5472 8.25 22.8944 8.25 20.95C8.25 20.6667 8.15417 20.4292 7.9625 20.2375C7.77083 20.0458 7.53333 19.95 7.25 19.95C6.96667 19.95 6.72917 20.0458 6.5375 20.2375C6.34583 20.4292 6.25 20.6667 6.25 20.95C6.25 23.44 7.1275 25.5625 8.8825 27.3175C10.6375 29.0725 12.76 29.95 15.25 29.95Z" fill="#FCBE36"/>
</svg>
