<svg width="40" height="36" viewBox="0 0 40 36" fill="none" xmlns="http://www.w3.org/2000/svg">
<path d="M15.5 36V29.5H0V26.5H15.5C16.325 26.5 17.0313 26.7938 17.6188 27.3813C18.2063 27.9688 18.5 28.675 18.5 29.5V36H15.5ZM21.5 36V29.5C21.5 28.675 21.7938 27.9688 22.3813 27.3813C22.9688 26.7938 23.675 26.5 24.5 26.5H40V29.5H24.5V36H21.5ZM7.5 23.5C5.97223 23.5 4.67362 22.9653 3.60415 21.8958C2.53472 20.8264 2 19.5278 2 18V9H38V18C38 19.5278 37.4653 20.8264 36.3959 21.8958C35.3264 22.9653 34.0278 23.5 32.5 23.5H7.5ZM7.5 20.5H32.5C33.2083 20.5 33.8021 20.2604 34.2813 19.7813C34.7604 19.3021 35 18.7083 35 18V12H5V18C5 18.7083 5.23958 19.3021 5.71875 19.7813C6.19792 20.2604 6.79167 20.5 7.5 20.5ZM2 7V4H14.5V1.5C14.5 1.075 14.6438 0.71875 14.9313 0.43125C15.2188 0.14375 15.575 0 16 0H24C24.425 0 24.7813 0.14375 25.0688 0.43125C25.3563 0.71875 25.5 1.075 25.5 1.5V4H38V7H2Z" fill="#FCBE36"/>
</svg>
