<svg width="44" height="43" viewBox="0 0 44 43" fill="none" xmlns="http://www.w3.org/2000/svg">
<path d="M38.25 24.95C39.15 25.4167 39.9083 25.2667 40.525 24.5C41.1417 23.7333 41.2167 22.9333 40.75 22.1L37.2 15.4L34.5 22.75L38.25 24.95ZM27.65 22.85H31.15L36 10.75C36.2 10.2833 36.275 9.825 36.225 9.375C36.175 8.925 35.9 8.58333 35.4 8.35L31.25 6.55C30.7833 6.31667 30.3167 6.31667 29.85 6.55C29.3833 6.78333 29.1333 7.13333 29.1 7.6L27.65 22.85ZM12.85 22.85H16.3L14.9 7.6C14.8667 7.1 14.6417 6.73333 14.225 6.5C13.8083 6.26667 13.3167 6.28333 12.75 6.55L8.8 8.25C8.36667 8.41667 8.125 8.79167 8.075 9.375C8.025 9.95833 8.08333 10.4833 8.25 10.95L12.85 22.85ZM5.75 24.95L9.5 22.75L6.8 15.4L3.25 22.35C2.78333 23.2833 2.88333 24.0417 3.55 24.625C4.21667 25.2083 4.95 25.3167 5.75 24.95ZM19.3 22.85H24.65L26.3 4.65C26.3667 4.18333 26.2417 3.79167 25.925 3.475C25.6083 3.15833 25.2167 3 24.75 3H19.25C18.7167 3 18.3167 3.15833 18.05 3.475C17.7833 3.79167 17.6667 4.18333 17.7 4.65L19.3 22.85ZM4.65 28C3.35 28 2.25 27.5333 1.35 26.6C0.45 25.6667 0 24.55 0 23.25C0 22.85 0.075 22.4583 0.225 22.075C0.375 21.6917 0.533333 21.3167 0.7 20.95L5.3 12C4.8 10.7 4.75 9.40833 5.15 8.125C5.55 6.84167 6.35 5.93333 7.55 5.4L11.7 3.7C12.2333 3.5 12.775 3.38333 13.325 3.35C13.875 3.31667 14.3833 3.45 14.85 3.75C15.1167 2.68333 15.65 1.79167 16.45 1.075C17.25 0.358333 18.1833 0 19.25 0H24.75C25.8167 0 26.75 0.333333 27.55 1C28.35 1.66667 28.8833 2.51667 29.15 3.55C29.65 3.35 30.1667 3.26667 30.7 3.3C31.2333 3.33333 31.75 3.46667 32.25 3.7L36.45 5.4C37.6833 5.86667 38.5083 6.73333 38.925 8C39.3417 9.26667 39.2667 10.5 38.7 11.7L43.3 20.9C43.4333 21.2667 43.5833 21.625 43.75 21.975C43.9167 22.325 44 22.6833 44 23.05C44 24.45 43.5 25.625 42.5 26.575C41.5 27.525 40.3 28 38.9 28C38.5333 28 38.1917 27.925 37.875 27.775C37.5583 27.625 37.2333 27.4833 36.9 27.35L33.85 25.85H10.1L7.2 27.35C6.8 27.5167 6.39167 27.6667 5.975 27.8C5.55833 27.9333 5.11667 28 4.65 28Z" fill="#030301"/>
<path d="M17.7793 34.35C17.7793 34.7967 17.6759 35.2033 17.4693 35.57C17.2626 35.93 16.9559 36.2167 16.5493 36.43C16.1493 36.6433 15.6626 36.75 15.0893 36.75H14.2093V39H11.9893V31.92H15.0893C15.9559 31.92 16.6193 32.14 17.0793 32.58C17.5459 33.02 17.7793 33.61 17.7793 34.35ZM14.8393 35C15.2993 35 15.5293 34.7833 15.5293 34.35C15.5293 33.9167 15.2993 33.7 14.8393 33.7H14.2093V35H14.8393ZM23.0234 37.93H20.6634L20.3134 39H17.9834L20.5734 31.92H23.1334L25.7134 39H23.3734L23.0234 37.93ZM22.4834 36.26L21.8434 34.29L21.2034 36.26H22.4834ZM33.0078 39H30.7878L28.4378 35.44V39H26.2178V31.92H28.4378L30.7878 35.54V31.92H33.0078V39Z" fill="#030301"/>
</svg>
